<?xml version="1.0" standalone="no"?>
<!DOCTYPE svg PUBLIC "-//W3C//DTD SVG 20010904//EN"
 "http://www.w3.org/TR/2001/REC-SVG-20010904/DTD/svg10.dtd">
<svg version="1.0" xmlns="http://www.w3.org/2000/svg"
 width="1280.000000pt" height="1202.000000pt" viewBox="0 0 1280.000000 1202.000000"
 preserveAspectRatio="xMidYMid meet">
<metadata>
Created by potrace 1.15, written by Peter Selinger 2001-2017
</metadata>
<g transform="translate(0.000000,1202.000000) scale(0.100000,-0.100000)"
fill="#fedb70" stroke="none">
<path d="M7655 12006 c-125 -29 -235 -95 -330 -198 -132 -142 -163 -255 -150
-543 l7 -162 1066 -1025 c1527 -1467 2158 -2064 2487 -2352 135 -117 239 -164
390 -173 185 -11 338 48 471 181 161 161 219 370 159 572 -19 66 -122 186
-453 531 -295 306 -1086 1084 -1622 1594 -917 872 -1610 1493 -1738 1556 -65
32 -194 40 -287 19z"/>
<path d="M4700 8153 c-1108 -1158 -2213 -2313 -2454 -2567 -1658 -1740 -1977
-2116 -2110 -2486 -35 -96 -89 -317 -112 -456 -28 -166 -26 -496 5 -667 92
-521 330 -972 705 -1334 349 -339 760 -544 1236 -619 173 -28 511 -25 680 4
360 64 725 206 936 365 280 212 849 785 2985 3007 2414 2511 3499 3643 3499
3649 0 4 -140 142 -312 306 -172 165 -372 358 -444 428 l-132 128 -569 -593
c-313 -326 -798 -831 -1077 -1123 -495 -517 -509 -530 -555 -538 -25 -5 -424
-8 -886 -6 -462 2 -1118 3 -1458 3 l-618 -1 94 96 c52 53 714 744 1473 1536
758 792 1522 1590 1699 1774 176 183 320 339 320 346 0 11 -865 845 -884 852
-3 2 -913 -945 -2021 -2104z"/>
<path d="M11725 6689 c-189 -157 -538 -502 -687 -679 -666 -793 -988 -1530
-988 -2262 0 -446 131 -837 377 -1130 118 -140 252 -243 428 -329 224 -109
394 -142 638 -121 421 36 642 136 922 417 274 275 365 493 382 910 11 274 -28
533 -122 810 -68 203 -202 540 -340 855 -256 584 -371 919 -421 1225 -9 55
-19 176 -23 269 l-6 168 -160 -133z m-258 -1654 c-8 -517 -20 -593 -110 -691
-27 -30 -69 -66 -93 -80 -38 -22 -48 -24 -77 -15 -106 35 -237 233 -237 360 0
179 115 442 280 640 69 83 234 216 239 193 2 -9 1 -192 -2 -407z"/>
</g>
</svg>
