<?xml version="1.0" standalone="no"?>
<!DOCTYPE svg PUBLIC "-//W3C//DTD SVG 20010904//EN"
 "http://www.w3.org/TR/2001/REC-SVG-20010904/DTD/svg10.dtd">
<svg version="1.0" xmlns="http://www.w3.org/2000/svg"
 width="1280.000000pt" height="1280.000000pt" viewBox="0 0 1280.000000 1280.000000"
 preserveAspectRatio="xMidYMid meet">
<metadata>
Created by potrace 1.15, written by Peter Selinger 2001-2017
</metadata>
<g transform="translate(0.000000,1280.000000) scale(0.100000,-0.100000)"
fill="#fedb70" stroke="none">
<path d="M6095 12794 c-1497 -80 -2871 -647 -3975 -1640 -868 -782 -1506
-1782 -1844 -2894 -126 -418 -208 -837 -253 -1305 -24 -252 -24 -858 0 -1110
90 -933 342 -1757 782 -2550 573 -1034 1456 -1917 2490 -2490 793 -439 1617
-692 2550 -782 252 -24 858 -24 1110 0 739 71 1389 239 2041 528 1255 554
2332 1540 2999 2744 440 793 692 1617 782 2550 24 252 24 858 0 1110 -90 933
-342 1757 -782 2550 -573 1034 -1456 1917 -2490 2490 -789 438 -1629 695
-2540 780 -162 15 -716 27 -870 19z m790 -1080 c1456 -133 2789 -854 3698
-2001 518 -654 867 -1399 1041 -2223 78 -369 109 -674 109 -1090 0 -416 -31
-721 -109 -1090 -261 -1232 -930 -2315 -1911 -3093 -820 -649 -1774 -1030
-2838 -1133 -232 -23 -718 -23 -950 0 -1257 122 -2373 638 -3259 1505 -912
894 -1457 2043 -1582 3336 -23 232 -23 718 0 950 125 1293 670 2442 1582 3336
945 926 2186 1464 3514 1523 148 6 539 -5 705 -20z"/>
<path d="M10315 8138 c-22 -12 -159 -79 -305 -148 -146 -70 -643 -308 -1105
-530 -1915 -918 -2108 -1010 -2122 -1010 -8 0 -92 20 -186 44 -95 25 -325 84
-512 131 -187 47 -445 113 -572 146 -128 32 -338 86 -465 118 -128 33 -386 99
-573 146 -187 47 -416 106 -510 130 -93 24 -341 87 -550 140 -209 53 -474 121
-588 150 -174 45 -209 51 -214 39 -30 -79 -199 -631 -194 -636 3 -3 929 -348
2056 -765 l2050 -759 223 -38 224 -38 1869 1122 c1028 618 1871 1126 1873
1129 4 7 -346 651 -354 651 -3 -1 -23 -10 -45 -22z"/>
</g>
</svg>
