<?xml version="1.0" standalone="no"?>
<!DOCTYPE svg PUBLIC "-//W3C//DTD SVG 20010904//EN"
 "http://www.w3.org/TR/2001/REC-SVG-20010904/DTD/svg10.dtd">
<svg version="1.0" xmlns="http://www.w3.org/2000/svg"
 width="1280.000000pt" height="1255.000000pt" viewBox="0 0 1280.000000 1255.000000"
 preserveAspectRatio="xMidYMid meet">
<metadata>
Created by potrace 1.15, written by Peter Selinger 2001-2017
</metadata>
<g transform="translate(0.000000,1255.000000) scale(0.100000,-0.100000)"
fill="#fedb70" stroke="none">
<path d="M224 12536 c-64 -20 -131 -72 -169 -129 -142 -216 11 -498 268 -497
34 1 78 7 98 14 l37 13 41 -48 c61 -71 135 -104 236 -104 65 0 90 5 136 26 71
33 125 87 158 158 38 81 37 193 -2 273 -31 62 -84 116 -149 149 -56 29 -187
38 -239 16 l-36 -15 -41 48 c-57 67 -133 102 -225 106 -43 2 -89 -2 -113 -10z"/>
<path d="M7403 12532 c-140 -50 -221 -175 -211 -326 8 -117 72 -211 180 -267
64 -33 176 -37 249 -10 75 29 141 88 176 159 24 49 28 69 28 142 0 66 -5 96
-22 132 -27 60 -95 127 -157 158 -67 32 -172 37 -243 12z"/>
<path d="M7970 11987 c-91 -26 -173 -98 -213 -186 -32 -70 -30 -179 4 -251 34
-73 76 -120 138 -154 166 -90 369 -21 449 152 71 156 -7 355 -165 423 -60 26
-155 33 -213 16z"/>
<path d="M11450 11987 c-94 -26 -163 -88 -206 -182 -107 -234 101 -493 356
-441 154 32 254 156 255 316 0 62 -5 85 -28 131 -32 66 -100 132 -162 160 -57
25 -157 33 -215 16z"/>
<path d="M8649 11897 c-96 -27 -165 -83 -212 -171 -18 -34 -22 -58 -22 -136 0
-110 21 -166 86 -231 61 -61 111 -82 210 -87 78 -4 92 -2 148 23 70 32 132 93
164 163 31 68 30 188 -2 259 -27 61 -103 136 -165 164 -58 25 -149 32 -207 16z"/>
<path d="M3157 11635 c-89 -33 -172 -122 -197 -210 -7 -27 -11 -75 -8 -118 8
-124 69 -211 188 -266 74 -35 181 -36 255 -2 65 29 138 101 167 165 31 70 32
191 1 257 -31 69 -90 128 -158 161 -50 23 -72 28 -135 27 -41 0 -92 -7 -113
-14z"/>
<path d="M4113 11316 c-211 -69 -294 -321 -164 -498 62 -83 151 -128 257 -128
127 0 238 70 294 185 33 70 34 188 2 261 -29 64 -102 137 -167 165 -61 27
-164 34 -222 15z"/>
<path d="M5852 11300 c-69 -35 -125 -92 -156 -159 -16 -35 -21 -65 -21 -131 0
-73 4 -92 28 -137 52 -100 147 -167 254 -180 44 -5 49 -9 67 -46 26 -55 88
-114 149 -143 76 -35 206 -34 282 1 61 29 128 97 156 158 29 65 27 205 -5 274
-48 102 -150 173 -258 181 -51 4 -57 7 -63 30 -3 14 -34 53 -68 87 -74 73
-127 95 -232 95 -60 0 -82 -5 -133 -30z"/>
<path d="M8473 11112 c-144 -51 -223 -160 -223 -305 0 -97 23 -152 94 -223 72
-72 126 -94 230 -94 125 0 236 73 290 189 16 35 21 65 21 131 0 73 -4 92 -28
137 -75 144 -242 216 -384 165z"/>
<path d="M12253 11112 c-74 -27 -131 -69 -169 -127 -89 -135 -66 -308 56 -418
61 -55 121 -77 210 -77 89 0 149 22 210 77 129 116 146 301 42 438 -77 101
-232 149 -349 107z"/>
<path d="M7234 10920 c-102 -21 -194 -95 -236 -188 -30 -66 -30 -189 -1 -254
74 -163 267 -239 423 -167 79 37 125 81 161 155 30 60 31 69 27 151 -3 73 -9
97 -33 141 -16 29 -45 67 -64 84 -73 64 -188 96 -277 78z"/>
<path d="M11012 10920 c-176 -36 -292 -218 -248 -388 34 -133 121 -216 257
-243 122 -24 256 35 325 144 102 158 40 375 -129 456 -69 33 -140 44 -205 31z"/>
<path d="M1334 10890 c-18 -6 -53 -25 -80 -42 -207 -140 -184 -448 41 -558 41
-20 65 -25 135 -25 73 0 93 4 142 28 62 30 115 83 150 149 19 36 23 58 23 138
0 108 -17 154 -84 223 -59 62 -122 90 -216 93 -44 2 -94 -1 -111 -6z"/>
<path d="M2444 10680 c-100 -20 -185 -84 -232 -175 -23 -43 -27 -62 -27 -140
0 -75 4 -98 24 -139 97 -196 363 -244 514 -92 21 20 49 60 64 89 24 45 28 63
28 142 0 78 -4 97 -27 141 -66 125 -215 200 -344 174z"/>
<path d="M7923 10369 c-66 -25 -141 -93 -173 -155 -32 -64 -40 -200 -16 -259
9 -21 15 -40 13 -42 -2 -2 -62 13 -133 32 -71 20 -196 50 -279 68 l-150 32
-630 0 -630 0 -153 -32 c-84 -18 -156 -33 -161 -33 -5 0 -12 19 -15 43 -16
103 -95 205 -194 250 -108 49 -261 18 -349 -70 -66 -66 -88 -123 -88 -228 0
-80 3 -97 28 -144 15 -30 26 -55 25 -55 -2 -1 -46 -21 -98 -45 -259 -116 -540
-290 -809 -502 -123 -98 -401 -366 -504 -488 l-72 -84 -6 75 c-11 130 -67 216
-177 270 -57 28 -77 33 -142 33 -91 0 -167 -31 -228 -94 -66 -69 -87 -121 -87
-226 0 -78 4 -97 27 -141 35 -66 115 -138 177 -159 62 -20 164 -21 219 -1 30
11 41 12 35 3 -4 -7 -39 -61 -78 -122 -279 -429 -472 -926 -559 -1438 l-22
-127 -29 30 c-16 17 -54 43 -85 58 -78 38 -190 39 -270 1 -70 -33 -126 -89
-159 -159 -21 -46 -26 -69 -25 -135 0 -68 5 -89 29 -138 54 -109 144 -168 266
-175 100 -6 162 14 229 75 l50 45 0 -74 -1 -73 -39 -18 c-56 -26 -118 -91
-147 -153 -31 -69 -35 -165 -8 -244 21 -65 109 -159 166 -180 36 -13 36 -13
54 -109 61 -326 166 -653 310 -957 298 -631 797 -1202 1393 -1592 109 -71 117
-79 111 -102 -13 -45 -9 -157 6 -200 31 -87 108 -164 196 -196 24 -8 75 -15
113 -15 88 0 176 40 234 106 l39 44 94 -35 c132 -49 377 -119 548 -156 l146
-32 605 -4 c669 -4 649 -5 940 64 493 117 977 339 1375 629 111 81 111 81 161
75 107 -12 203 19 274 90 61 61 83 112 88 205 2 45 10 89 17 99 12 16 17 13
61 -34 27 -29 66 -61 87 -71 21 -11 40 -25 41 -32 21 -74 46 -118 91 -163 152
-153 404 -115 510 77 27 49 30 62 30 149 0 80 -4 102 -23 138 -32 61 -84 115
-136 143 -37 19 -47 31 -57 66 -22 78 -104 172 -177 202 l-30 12 85 132 c95
149 258 469 320 627 92 237 173 516 213 739 16 94 20 157 20 349 l0 234 30 34
c52 60 73 112 78 195 6 96 -14 161 -69 222 l-39 45 0 109 c0 127 -23 271 -80
488 -75 291 -162 520 -301 795 -374 739 -980 1342 -1726 1717 l-152 77 47 27
c105 61 155 144 160 266 5 115 -15 171 -87 244 -95 95 -227 125 -348 78z"/>
<path d="M953 10082 c-140 -50 -221 -175 -211 -326 8 -117 72 -211 180 -267
64 -33 176 -37 249 -10 75 29 141 88 176 159 24 49 28 69 28 142 0 100 -23
159 -90 225 -85 86 -220 117 -332 77z"/>
<path d="M10243 9950 c-170 -36 -277 -193 -251 -369 37 -245 341 -352 527
-185 74 67 106 138 106 239 0 67 -5 89 -28 137 -64 131 -215 207 -354 178z"/>
<path d="M11063 9766 c-157 -51 -247 -198 -221 -362 11 -71 36 -119 88 -171
59 -60 121 -87 207 -91 138 -8 245 54 305 175 28 58 33 77 32 143 0 55 -6 88
-23 126 -28 64 -101 136 -166 165 -61 27 -164 34 -222 15z"/>
<path d="M1725 9607 c-94 -32 -168 -96 -207 -182 -35 -76 -32 -190 7 -268 32
-64 81 -114 147 -149 36 -19 58 -23 138 -23 80 0 103 4 143 23 193 96 239 348
92 511 -72 79 -221 120 -320 88z"/>
<path d="M2143 8272 c-63 -22 -115 -61 -153 -114 -92 -127 -75 -318 37 -419
l39 -36 0 -79 c0 -134 62 -236 176 -294 53 -26 72 -30 143 -30 71 0 90 4 143
30 193 97 238 351 88 506 l-51 53 0 83 c-1 100 -22 156 -87 220 -87 88 -223
120 -335 80z"/>
<path d="M509 7607 c-149 -42 -241 -161 -241 -311 0 -42 7 -89 16 -110 l15
-36 -38 -20 c-53 -26 -126 -111 -145 -167 -9 -26 -16 -78 -16 -117 0 -125 73
-236 189 -290 71 -32 198 -29 268 7 69 36 120 88 150 154 38 83 40 154 8 258
-5 17 2 25 33 43 52 29 108 92 134 150 33 73 30 190 -5 264 -66 136 -230 214
-368 175z"/>
<path d="M11098 7389 c-234 -38 -340 -322 -192 -516 63 -83 191 -134 294 -117
l58 10 -24 -29 c-57 -68 -69 -105 -69 -212 0 -92 2 -104 29 -153 127 -229 458
-219 573 16 23 48 28 70 28 137 0 67 -5 89 -28 137 -66 135 -219 208 -365 176
l-34 -8 32 37 c92 104 102 261 25 383 -65 102 -200 160 -327 139z"/>
<path d="M10891 6099 c-108 -21 -212 -110 -244 -209 -52 -160 14 -320 160
-392 58 -28 77 -33 143 -33 127 1 227 62 287 178 24 45 28 64 28 137 0 65 -5
96 -21 131 -63 137 -210 216 -353 188z"/>
<path d="M307 5765 c-85 -32 -162 -111 -192 -195 -8 -23 -15 -75 -15 -114 0
-122 68 -229 178 -283 81 -38 193 -39 272 -2 70 33 126 89 159 159 38 80 37
192 -2 272 -31 62 -84 115 -149 149 -55 29 -193 36 -251 14z"/>
<path d="M1982 4260 c-69 -35 -125 -92 -155 -159 -33 -70 -31 -188 4 -262 68
-143 226 -217 374 -174 146 42 235 159 235 308 0 97 -23 152 -94 223 -73 72
-126 94 -231 94 -60 0 -82 -5 -133 -30z"/>
<path d="M1292 4270 c-101 -21 -192 -94 -235 -188 -33 -73 -30 -190 6 -264 95
-193 346 -243 508 -100 106 93 132 264 61 395 -62 116 -209 183 -340 157z"/>
<path d="M12400 4084 c-30 -8 -71 -26 -91 -39 l-37 -24 -51 20 c-156 59 -330
-9 -403 -158 -28 -58 -33 -77 -32 -143 0 -92 23 -148 89 -219 103 -110 283
-132 405 -48 l34 24 46 -20 c68 -32 178 -29 252 5 66 31 128 91 160 156 19 39
23 63 23 137 0 78 -4 97 -27 141 -71 135 -229 207 -368 168z"/>
<path d="M3780 3041 c-83 -26 -159 -90 -201 -171 -20 -38 -24 -60 -24 -140 0
-80 4 -102 23 -138 35 -66 88 -119 150 -149 49 -24 69 -28 142 -28 100 0 159
23 225 89 66 66 89 126 90 226 0 73 -4 93 -28 142 -54 110 -167 179 -290 177
-34 0 -73 -4 -87 -8z"/>
<path d="M2505 2837 c-63 -21 -97 -42 -142 -89 -61 -63 -87 -127 -87 -218 -1
-66 3 -84 32 -142 60 -123 163 -183 302 -176 89 4 150 30 209 89 67 67 86 118
86 229 0 81 -4 102 -25 143 -30 60 -96 122 -158 149 -57 26 -163 33 -217 15z"/>
<path d="M9010 2765 c-76 -25 -140 -82 -180 -159 -31 -61 -35 -78 -35 -146 0
-68 4 -85 35 -146 121 -237 457 -230 571 11 34 71 39 171 13 248 -21 61 -94
141 -158 174 -63 32 -177 41 -246 18z"/>
<path d="M3175 2517 c-63 -21 -97 -42 -142 -89 -139 -142 -111 -383 55 -489
63 -40 113 -52 197 -47 83 4 145 31 204 88 63 61 84 111 89 212 4 76 1 92 -21
141 -54 117 -148 184 -273 192 -43 3 -84 0 -109 -8z"/>
<path d="M509 2077 c-151 -43 -241 -161 -241 -314 1 -64 5 -85 32 -139 55
-113 159 -177 285 -177 295 0 434 360 214 557 -77 69 -196 99 -290 73z"/>
<path d="M1735 1867 c-68 -23 -101 -44 -148 -97 -56 -62 -82 -132 -81 -220 1
-66 31 -157 60 -181 11 -9 9 -17 -11 -43 -71 -94 -91 -231 -48 -328 30 -66 95
-133 162 -165 73 -37 190 -39 262 -7 165 76 237 261 167 426 -11 26 -27 53
-34 59 -12 10 -10 17 11 46 72 93 92 228 48 325 -31 67 -104 142 -166 168 -63
28 -166 35 -222 17z"/>
<path d="M3904 1689 c-74 -28 -128 -79 -166 -156 -28 -58 -33 -77 -32 -143 0
-92 23 -148 89 -219 64 -69 128 -95 230 -96 68 0 89 4 137 28 202 99 245 364
83 521 -85 83 -226 110 -341 65z"/>
<path d="M8183 1546 c-278 -91 -308 -469 -47 -597 35 -17 71 -25 124 -27 138
-7 242 53 302 175 28 58 33 77 32 143 0 55 -6 88 -21 122 -31 67 -104 142
-166 168 -64 28 -166 35 -224 16z"/>
<path d="M4724 1189 c-207 -79 -271 -345 -123 -512 146 -166 423 -130 524 68
26 52 30 69 30 144 0 74 -4 94 -28 143 -72 146 -250 216 -403 157z"/>
<path d="M1099 1177 c-149 -42 -242 -163 -242 -313 0 -178 139 -317 318 -317
110 0 215 56 271 145 35 56 58 151 49 212 -25 188 -219 323 -396 273z"/>
<path d="M325 1157 c-91 -30 -157 -88 -197 -172 -22 -48 -28 -74 -28 -131 0
-92 22 -153 77 -214 62 -69 129 -102 219 -108 350 -23 475 445 161 605 -62 31
-169 40 -232 20z"/>
<path d="M11700 1161 c-95 -31 -169 -95 -209 -180 -21 -45 -26 -71 -26 -131 0
-65 4 -85 33 -143 60 -122 169 -184 306 -175 90 6 157 39 219 108 144 160 87
415 -112 503 -50 22 -169 32 -211 18z"/>
<path d="M10613 1126 c-155 -51 -241 -173 -231 -330 6 -85 37 -152 98 -211 40
-38 41 -42 35 -87 -8 -57 15 -152 49 -205 126 -197 418 -198 542 -1 34 54 57
150 49 207 -8 64 -59 163 -101 201 -36 31 -36 32 -38 118 -1 73 -6 95 -29 139
-36 69 -88 120 -155 151 -66 30 -159 38 -219 18z"/>
<path d="M2720 631 c-97 -32 -187 -116 -216 -204 -37 -113 -14 -232 63 -317
25 -28 69 -63 97 -78 44 -23 63 -27 141 -27 74 0 98 5 137 24 201 99 247 366
89 519 -61 59 -122 84 -211 88 -41 2 -86 0 -100 -5z"/>
<path d="M6470 631 c-94 -29 -187 -116 -216 -204 -37 -113 -14 -232 63 -317
117 -130 300 -146 441 -40 l50 38 24 -25 c12 -14 46 -37 73 -51 43 -23 62 -27
140 -27 79 0 97 4 142 27 115 61 178 163 177 288 -1 127 -63 227 -177 288 -45
23 -63 27 -142 27 -78 0 -97 -4 -140 -27 -27 -14 -61 -37 -74 -51 l-23 -26
-52 39 c-28 21 -73 45 -99 54 -49 17 -143 20 -187 7z"/>
</g>
</svg>
